<?xml version="1.0" standalone="no"?>
<!DOCTYPE svg PUBLIC "-//W3C//DTD SVG 20010904//EN"
 "http://www.w3.org/TR/2001/REC-SVG-20010904/DTD/svg10.dtd">
<svg version="1.0" xmlns="http://www.w3.org/2000/svg"
 width="4094.000000pt" height="4094.000000pt" viewBox="0 0 4094.000000 4094.000000"
 preserveAspectRatio="xMidYMid meet">
<metadata>
Created by potrace 1.11, written by Peter Selinger 2001-2013
</metadata>
<g transform="translate(0.000000,4094.000000) scale(0.100000,-0.100000)"
fill="#000000" stroke="none">
<path d="M19963 40933 c3 -5 -32 -9 -76 -10 -45 -1 -120 -4 -167 -7 -47 -3
-128 -9 -180 -12 -52 -3 -122 -7 -155 -9 -33 -2 -100 -6 -150 -9 -49 -3 -130
-8 -179 -11 -67 -4 -92 -10 -105 -23 -10 -12 -13 -12 -7 -2 5 8 -11 -6 -35
-31 -38 -39 -49 -45 -79 -43 -19 1 -35 3 -35 4 0 3 -40 10 -72 13 -18 1 -33 5
-33 8 0 4 -10 7 -22 8 -29 0 -93 9 -93 11 0 2 -9 4 -20 5 -11 2 -33 6 -50 9
-27 6 -52 10 -125 21 -14 2 -25 5 -25 6 0 1 -9 3 -20 5 -63 10 -114 19 -170
30 -16 3 -41 8 -55 10 -14 2 -38 6 -55 9 -57 11 -120 12 -132 2 -7 -5 -13 -7
-13 -4 0 4 -20 -2 -45 -13 -25 -11 -45 -17 -45 -14 0 2 -13 -2 -29 -10 -16 -9
-31 -12 -35 -9 -3 4 -6 1 -6 -6 0 -8 -7 -11 -15 -7 -8 3 -15 1 -15 -5 0 -6 -4
-8 -9 -5 -5 3 -26 -2 -47 -11 -41 -17 -45 -19 -81 -27 -12 -2 -31 -10 -43 -16
-12 -6 -30 -13 -41 -16 -10 -2 -28 -6 -38 -8 -10 -3 -33 -12 -50 -20 -17 -9
-31 -14 -31 -10 0 4 -7 1 -15 -6 -8 -7 -15 -9 -15 -5 0 4 -7 2 -15 -5 -8 -7
-15 -9 -15 -5 0 4 -6 2 -13 -4 -8 -6 -17 -8 -20 -4 -4 3 -7 0 -7 -7 0 -7 -3
-11 -6 -7 -6 5 -22 1 -99 -29 -11 -4 -26 -6 -32 -5 -7 1 -13 -3 -13 -9 0 -5
-3 -9 -7 -9 -5 1 -11 0 -15 -1 -17 -5 -29 -8 -49 -9 -11 0 -17 -5 -14 -11 18
-28 -31 1 -81 48 -13 13 -24 21 -24 18 0 -3 -11 5 -24 17 -13 12 -35 31 -50
42 -15 11 -36 29 -48 40 -12 12 -18 14 -13 5 4 -8 -3 -4 -16 10 -33 34 -45 34
-59 0 -7 -16 -23 -36 -36 -45 -14 -9 -22 -20 -19 -26 4 -5 1 -8 -6 -7 -7 2
-13 -2 -14 -7 0 -6 -15 -26 -32 -45 -18 -19 -33 -41 -33 -48 0 -7 -4 -10 -10
-7 -5 3 -10 2 -10 -4 0 -6 -12 -22 -27 -36 -15 -14 -24 -25 -20 -25 4 0 -6
-15 -23 -32 -57 -60 -66 -72 -50 -63 8 4 -1 -6 -20 -24 -19 -18 -35 -35 -35
-39 0 -4 -11 -19 -25 -33 -39 -41 -69 -79 -63 -79 3 0 -6 -9 -21 -21 -14 -11
-26 -25 -26 -31 0 -13 -42 -52 -61 -57 -8 -2 -68 -5 -134 -7 -110 -3 -189 -6
-515 -19 -63 -2 -185 -7 -270 -9 -85 -3 -155 -6 -155 -6 0 -1 -9 -3 -20 -5
-11 -2 -30 -6 -42 -9 -13 -3 -31 -8 -40 -10 -10 -3 -32 -9 -50 -15 -17 -5 -34
-7 -37 -3 -3 3 -6 0 -6 -6 0 -6 -8 -11 -17 -10 -10 0 -29 -3 -43 -7 -14 -3
-36 -8 -50 -11 -14 -3 -32 -7 -40 -9 -8 -2 -15 -4 -15 -5 0 -1 -11 -4 -25 -7
-38 -7 -55 -11 -57 -13 -2 -2 -7 -4 -13 -5 -5 -1 -12 -4 -15 -5 -6 -3 -4 -2
-60 -15 -22 -4 -43 -8 -47 -7 -5 1 -8 -2 -8 -6 0 -4 -8 -8 -17 -9 -10 0 -29
-4 -43 -8 -14 -3 -32 -8 -40 -10 -8 -2 -16 -4 -17 -5 -2 -2 -12 -4 -23 -5 -11
-1 -21 -3 -22 -5 -5 -3 -42 -12 -60 -13 -9 -1 -14 -5 -12 -9 3 -4 1 -8 -5 -8
-5 0 -20 23 -32 50 -12 28 -27 50 -31 50 -5 0 -6 5 -3 10 3 6 1 10 -4 10 -6 0
-10 3 -10 8 4 21 -3 32 -20 32 -11 0 -23 -5 -26 -10 -4 -6 -11 -8 -16 -5 -5 4
-9 1 -9 -5 0 -6 -4 -9 -9 -5 -5 3 -12 1 -16 -5 -4 -6 -11 -8 -16 -5 -5 4 -9 1
-9 -5 0 -6 -4 -8 -10 -5 -5 3 -10 2 -10 -2 0 -5 -10 -9 -21 -10 -12 -1 -31
-10 -42 -20 -14 -12 -18 -13 -12 -3 6 11 3 10 -12 -3 -11 -9 -23 -14 -26 -10
-4 3 -7 1 -7 -5 0 -6 -6 -9 -14 -6 -7 3 -21 -2 -30 -11 -9 -9 -16 -13 -16 -9
0 3 -6 1 -13 -5 -8 -6 -17 -8 -20 -4 -4 3 -16 -2 -28 -13 -12 -10 -24 -18 -28
-18 -3 1 -16 -2 -29 -7 -13 -5 -28 -9 -33 -9 -5 0 -9 -4 -9 -8 0 -4 -10 -8
-22 -9 -11 -1 -25 -8 -29 -15 -5 -7 -9 -9 -9 -5 0 4 -10 2 -22 -5 -13 -6 -32
-13 -43 -15 -10 -2 -23 -9 -27 -16 -4 -6 -8 -8 -8 -3 0 5 -6 3 -13 -3 -8 -6
-17 -8 -20 -4 -4 3 -7 1 -7 -6 0 -7 -4 -9 -10 -6 -5 3 -10 2 -10 -2 0 -5 -10
-10 -22 -10 -13 -1 -24 -7 -26 -12 -2 -5 -10 -7 -18 -4 -8 3 -14 0 -14 -7 0
-13 -18 4 -37 35 -6 11 -17 18 -25 16 -7 -2 -20 -4 -28 -5 -8 -2 -23 -6 -32
-10 -9 -4 -25 -9 -35 -11 -10 -2 -18 -4 -18 -5 0 -1 -8 -3 -17 -6 -10 -2 -26
-6 -35 -8 -10 -3 -19 -5 -20 -6 -2 -2 -7 -4 -13 -5 -5 -1 -13 -4 -17 -5 -5 -1
-12 -3 -18 -4 -5 -1 -30 -8 -55 -16 -25 -7 -48 -14 -52 -16 -5 -1 -10 -3 -13
-4 -3 -1 -9 -4 -15 -5 -5 -1 -12 -4 -15 -5 -3 -1 -9 -4 -15 -5 -5 -1 -13 -4
-17 -5 -5 -1 -12 -2 -17 -1 -4 1 -14 -4 -22 -10 -8 -6 -14 -9 -14 -5 0 3 -12
1 -27 -5 -16 -6 -35 -12 -43 -14 -8 -3 -40 -11 -70 -20 -30 -9 -62 -18 -70
-20 -8 -2 -17 -4 -20 -5 -3 -1 -9 -3 -15 -5 -5 -1 -13 -3 -17 -5 -5 -1 -12 -4
-18 -5 -5 -1 -12 -4 -15 -5 -3 -1 -9 -4 -15 -5 -5 -1 -11 -3 -12 -5 -2 -1 -10
-3 -18 -5 -8 -1 -35 -9 -60 -16 -25 -7 -48 -12 -52 -11 -5 1 -8 -2 -8 -7 0 -6
-8 -9 -17 -9 -10 1 -55 -10 -100 -24 -45 -14 -84 -23 -87 -20 -3 3 -6 0 -6 -6
0 -6 -7 -9 -15 -6 -8 4 -15 1 -15 -6 0 -7 -7 -10 -16 -6 -9 4 -23 1 -30 -5 -8
-6 -14 -8 -14 -4 0 4 -6 3 -12 -3 -7 -6 -17 -11 -23 -12 -21 -2 -60 -13 -70
-19 -5 -3 -19 -6 -30 -7 -11 -1 -39 -9 -62 -17 -22 -9 -44 -13 -47 -10 -3 4
-6 1 -6 -6 0 -7 -5 -9 -10 -6 -6 4 -17 1 -25 -5 -8 -7 -15 -10 -15 -6 0 3 -15
0 -32 -7 -18 -8 -37 -16 -43 -18 -13 -5 -10 -47 11 -169 2 -14 6 -41 8 -60 2
-19 7 -53 11 -75 11 -64 15 -88 20 -130 8 -63 13 -90 15 -90 2 0 7 -35 13 -97
4 -40 2 -48 -11 -49 -10 -1 -46 -3 -82 -5 -36 -2 -96 -5 -135 -8 -38 -3 -117
-7 -175 -11 -152 -8 -370 -21 -515 -30 -49 -4 -121 -8 -160 -10 -89 -5 -237
-14 -340 -21 -44 -2 -116 -6 -160 -7 -73 -2 -81 -4 -82 -22 0 -21 -8 -82 -19
-150 -4 -22 -8 -53 -9 -70 -2 -16 -4 -30 -5 -30 -1 0 -4 -16 -6 -35 -6 -61
-12 -105 -14 -105 -1 0 -3 -11 -5 -25 -1 -14 -5 -38 -9 -55 -3 -16 -8 -52 -11
-80 -3 -27 -7 -61 -10 -75 -4 -22 -9 -58 -20 -140 -2 -14 -6 -42 -10 -64 -6
-35 -13 -80 -14 -98 -2 -14 -24 -8 -38 10 -8 9 -11 11 -7 3 5 -9 -2 -7 -18 5
-14 10 -24 22 -21 27 2 4 -3 7 -12 7 -8 0 -18 7 -21 15 -4 8 -12 15 -19 15 -7
0 -23 12 -35 28 -12 15 -18 20 -14 12 4 -8 -3 -5 -17 7 -46 43 -72 63 -81 63
-5 0 -6 5 -3 10 3 6 1 10 -6 10 -6 0 -18 8 -26 18 -9 10 -12 11 -7 2 7 -14 -3
-6 -73 58 -12 11 -24 18 -27 14 -3 -3 -6 2 -6 12 0 9 -5 14 -10 11 -6 -4 -27
11 -47 32 -20 21 -32 31 -28 23 5 -8 -3 -4 -17 10 -34 34 -81 70 -91 70 -5 0
-5 5 -1 12 4 6 3 8 -3 5 -6 -4 -28 10 -49 31 -21 20 -34 30 -29 22 8 -13 6
-13 -8 -1 -9 7 -14 18 -10 25 3 6 3 8 -2 4 -4 -4 -14 0 -22 10 -7 9 -13 13
-12 7 1 -5 0 -12 -1 -15 -3 -10 -10 -45 -15 -85 -3 -22 -8 -53 -11 -70 -3 -16
-8 -43 -10 -60 -7 -56 -13 -100 -18 -130 -3 -16 -8 -48 -11 -70 -3 -22 -7 -53
-10 -70 -3 -16 -8 -46 -10 -65 -7 -48 -13 -88 -20 -135 -4 -22 -7 -48 -6 -57
0 -10 -5 -20 -10 -23 -5 -4 -7 -10 -4 -14 2 -5 -12 -11 -33 -14 -59 -10 -71
-13 -78 -19 -3 -4 -12 -4 -19 -2 -7 3 -16 0 -20 -5 -3 -6 -11 -9 -16 -5 -5 3
-15 1 -22 -4 -7 -5 -20 -8 -29 -7 -10 2 -18 0 -18 -4 0 -4 -8 -7 -17 -8 -10 0
-29 -4 -43 -8 -14 -4 -33 -8 -42 -8 -10 -1 -18 -5 -18 -10 0 -4 -4 -6 -9 -3
-4 3 -23 1 -42 -5 -19 -6 -43 -12 -54 -14 -34 -8 -64 -15 -87 -21 -13 -3 -30
-7 -38 -9 -8 -2 -15 -4 -15 -6 0 -1 -9 -3 -20 -5 -11 -1 -31 -6 -45 -9 -14 -4
-33 -7 -42 -7 -10 1 -18 -3 -18 -8 0 -5 -8 -9 -17 -8 -10 0 -31 -3 -48 -7 -16
-4 -37 -9 -45 -10 -41 -8 -58 -18 -55 -33 2 -10 4 -17 5 -17 2 0 10 -33 16
-65 2 -14 5 -32 7 -40 1 -8 6 -21 10 -27 5 -7 6 -13 4 -13 -3 0 -1 -17 4 -37
10 -39 15 -60 23 -103 7 -37 15 -71 23 -105 4 -16 8 -38 9 -47 1 -10 2 -19 4
-20 2 -3 6 -20 14 -58 3 -14 8 -37 12 -52 3 -16 2 -28 -3 -29 -4 0 -17 -2 -28
-5 -11 -2 -30 -5 -42 -6 -13 -1 -23 -5 -23 -8 0 -5 -9 -7 -65 -11 -14 -1 -25
-5 -25 -10 0 -5 -10 -7 -22 -5 -13 2 -30 0 -38 -4 -8 -4 -31 -10 -50 -13 -38
-7 -75 -15 -75 -17 0 -1 -11 -3 -25 -6 -47 -7 -75 -13 -100 -18 -65 -15 -76
-17 -95 -21 -11 -2 -33 -7 -50 -11 -16 -3 -38 -6 -47 -6 -10 0 -20 -3 -23 -8
-3 -5 -12 -7 -19 -4 -8 3 -17 0 -21 -5 -3 -6 -11 -9 -16 -5 -5 3 -25 0 -45 -6
-19 -7 -46 -14 -60 -16 -23 -3 -34 -6 -102 -19 -15 -3 -33 -6 -39 -7 -7 -1
-13 -4 -13 -7 0 -3 -26 -7 -58 -8 -31 0 -82 -4 -112 -7 -30 -3 -80 -8 -110
-11 -30 -2 -77 -7 -105 -10 -69 -7 -174 -16 -210 -19 -16 -1 -28 -6 -27 -11 5
-14 80 -109 120 -152 12 -13 22 -27 22 -30 0 -3 15 -20 33 -36 17 -17 25 -27
17 -23 -8 4 -5 -1 8 -12 12 -11 22 -24 22 -29 0 -5 10 -18 23 -29 12 -11 33
-36 47 -54 14 -19 36 -46 50 -60 13 -14 24 -27 23 -30 -1 -3 3 -4 9 -2 5 1 7
-2 4 -7 -3 -5 15 -31 42 -57 26 -27 38 -42 27 -35 -11 7 -7 2 8 -13 15 -14 25
-26 21 -26 -3 0 11 -16 32 -36 22 -20 33 -33 25 -29 -9 5 -7 -2 5 -18 10 -15
25 -27 32 -27 7 0 10 -5 7 -10 -3 -6 1 -13 9 -16 9 -3 16 -10 16 -16 0 -5 11
-20 25 -34 14 -14 25 -28 25 -32 0 -4 18 -27 40 -50 22 -24 40 -48 40 -53 0
-6 4 -8 8 -5 5 3 9 -1 9 -8 0 -14 6 -14 -292 0 -66 3 -167 7 -225 9 -58 3
-143 7 -190 10 -47 2 -143 7 -215 10 -71 3 -168 7 -215 10 -101 5 -295 14
-473 22 -129 5 -129 5 -118 -16 7 -11 16 -21 21 -21 6 0 9 -3 8 -7 -4 -15 14
-53 24 -53 6 0 9 -3 6 -6 -4 -3 9 -33 28 -66 19 -33 34 -64 34 -68 0 -5 7 -13
16 -18 9 -5 15 -12 14 -16 -4 -13 22 -66 32 -66 5 0 6 -4 3 -10 -3 -5 -3 -10
2 -10 4 0 24 -34 43 -74 19 -41 39 -72 45 -69 5 4 7 3 3 -2 -4 -4 9 -37 29
-74 20 -36 44 -81 53 -99 9 -18 20 -29 24 -25 4 4 6 3 5 -2 -4 -15 11 -55 22
-55 5 0 8 -3 7 -7 -4 -15 14 -53 24 -53 6 0 8 -3 5 -7 -4 -3 -3 -11 2 -17 5
-6 35 -60 67 -121 32 -60 60 -112 63 -115 10 -8 32 -62 28 -67 -3 -2 -73 63
-157 144 -84 81 -157 147 -162 145 -5 -1 -7 1 -4 6 7 12 -68 84 -79 75 -4 -5
-5 -3 -2 3 7 11 -54 74 -72 74 -6 0 -10 4 -8 9 1 4 -18 27 -43 50 -25 23 -105
102 -178 174 -119 118 -131 127 -115 90 10 -23 22 -39 27 -36 5 4 6 1 3 -4 -7
-11 59 -164 75 -174 5 -3 9 -9 9 -13 -3 -14 12 -56 18 -56 4 0 8 -6 8 -12 0
-7 19 -53 42 -101 22 -49 41 -92 41 -98 0 -5 4 -9 8 -9 5 0 9 -6 9 -12 0 -7
16 -47 36 -88 19 -41 64 -139 100 -217 35 -79 68 -139 72 -135 5 4 5 2 2 -5
-4 -6 4 -34 18 -61 33 -65 32 -76 -2 -67 -16 4 -35 8 -43 9 -8 0 -17 3 -20 6
-3 3 -41 16 -85 29 -44 13 -129 40 -190 59 -60 20 -117 36 -125 37 -8 1 -24 6
-35 10 -40 14 -71 24 -105 34 -19 5 -93 27 -165 49 -380 117 -625 192 -628
192 -2 0 -2 -13 1 -30 2 -16 9 -30 14 -30 5 0 7 -4 4 -9 -4 -5 -1 -22 5 -38 7
-15 13 -32 13 -38 2 -11 18 -69 47 -165 11 -36 25 -83 31 -105 6 -22 14 -44
17 -50 3 -5 6 -16 7 -25 0 -8 9 -42 20 -75 10 -33 17 -63 16 -67 -1 -5 1 -8 6
-8 4 0 8 -12 9 -27 0 -15 6 -29 11 -31 5 -1 8 -12 5 -22 -3 -12 0 -20 6 -20 7
0 10 -3 7 -8 -2 -4 13 -66 34 -137 34 -117 36 -131 21 -138 -9 -5 -29 -23 -45
-40 -16 -18 -25 -25 -21 -18 11 19 -37 -15 -87 -62 -21 -19 -38 -32 -38 -28
-1 3 -10 -5 -20 -18 -11 -13 -20 -19 -20 -15 -1 5 -10 -2 -20 -15 -11 -13 -20
-20 -20 -16 0 3 -7 -1 -16 -9 -8 -9 -35 -30 -60 -47 -24 -16 -44 -34 -44 -39
0 -6 -5 -10 -11 -10 -11 0 -111 -79 -117 -92 -2 -5 -10 -8 -17 -8 -8 0 -18 -6
-22 -13 -4 -7 -21 -21 -38 -32 -16 -10 -43 -32 -59 -49 -16 -17 -26 -24 -22
-16 4 8 -2 4 -13 -9 -12 -13 -21 -20 -21 -15 0 4 -14 -8 -31 -27 -18 -19 -28
-28 -24 -20 5 8 -8 2 -28 -13 -20 -16 -37 -33 -37 -39 0 -6 -3 -8 -6 -4 -3 3
-15 -3 -27 -13 -11 -11 -24 -17 -28 -14 -5 3 -19 -1 -31 -8 -13 -6 -27 -13
-33 -14 -32 -7 -141 -50 -147 -59 -4 -5 -8 -7 -8 -2 0 4 -13 1 -30 -8 -16 -8
-31 -15 -32 -14 -6 4 -83 -24 -95 -34 -7 -5 -13 -6 -13 -2 0 4 -6 2 -14 -4 -8
-7 -22 -13 -32 -15 -11 -3 -32 -9 -48 -16 l-30 -11 25 -13 c44 -23 73 -41 87
-54 7 -7 18 -9 24 -6 7 4 8 2 4 -4 -6 -11 0 -14 20 -11 4 0 10 -3 13 -8 10
-13 65 -48 74 -45 4 1 7 -2 7 -8 0 -5 17 -17 38 -27 20 -9 39 -19 42 -22 15
-17 75 -54 87 -54 7 0 13 -4 13 -9 0 -5 12 -14 27 -21 16 -6 34 -17 41 -24 8
-7 17 -11 22 -8 4 3 11 -2 14 -11 4 -9 9 -14 12 -11 7 6 34 -17 34 -28 0 -4
-10 -4 -22 -1 -13 4 -34 9 -48 11 -14 2 -36 6 -50 10 -40 10 -73 16 -95 19
-12 1 -25 5 -30 8 -6 3 -28 9 -50 12 -22 4 -47 8 -55 11 -15 4 -54 13 -95 20
-11 2 -31 7 -45 10 -24 6 -47 11 -92 20 -13 2 -34 6 -48 10 -14 3 -36 7 -50
10 l-25 4 -2 -127 c-4 -314 -13 -545 -23 -557 -5 -6 -7 -15 -3 -18 3 -4 2 -7
-4 -7 -6 0 -23 -19 -39 -42 -16 -24 -39 -54 -51 -68 -13 -14 -23 -28 -23 -32
0 -4 -11 -19 -25 -33 -14 -14 -23 -25 -20 -25 3 0 -8 -15 -24 -32 -17 -18 -31
-36 -31 -39 0 -3 -8 -15 -18 -27 -9 -11 -24 -30 -32 -42 -8 -12 -23 -32 -34
-43 -40 -47 -137 -177 -131 -177 3 0 -7 -12 -22 -26 -15 -14 -21 -22 -13 -18
8 4 4 -4 -10 -18 -37 -39 -52 -58 -43 -58 4 0 -3 -7 -15 -16 -12 -8 -22 -19
-22 -24 0 -5 -13 -24 -30 -42 -17 -18 -30 -37 -30 -43 0 -6 -9 -16 -20 -23
-12 -7 -18 -17 -15 -22 3 -6 2 -10 -2 -10 -5 0 -31 -29 -57 -65 -26 -36 -55
-72 -63 -80 -8 -8 -11 -15 -7 -15 4 0 -5 -12 -19 -26 -15 -15 -24 -31 -20 -38
3 -6 3 -8 -2 -4 -4 4 -21 -9 -36 -30 -16 -20 -33 -43 -39 -49 -6 -7 -8 -13 -4
-13 3 0 -4 -9 -17 -21 -13 -11 -17 -17 -9 -13 8 5 -2 -8 -22 -28 -31 -31 -57
-89 -46 -101 2 -2 -3 -11 -11 -20 -7 -10 -10 -17 -6 -17 4 0 2 -6 -4 -14 -6
-7 -9 -21 -5 -30 3 -9 2 -16 -3 -16 -5 0 -10 -6 -11 -12 -4 -31 -10 -55 -19
-78 -6 -14 -9 -29 -6 -33 3 -4 0 -14 -6 -21 -6 -7 -12 -22 -14 -33 -4 -25 -33
-71 -63 -99 -13 -12 -20 -25 -17 -28 4 -3 1 -6 -5 -6 -7 0 -12 -6 -12 -14 0
-8 -5 -18 -12 -22 -7 -5 -9 -2 -4 7 4 8 1 6 -6 -5 -7 -10 -24 -31 -38 -46 -14
-15 -36 -42 -50 -59 -14 -17 -37 -44 -52 -60 -15 -16 -24 -31 -21 -35 4 -3 -1
-6 -11 -6 -9 0 -15 -4 -11 -9 3 -6 -3 -14 -12 -20 -10 -6 -15 -11 -10 -11 4 0
-10 -16 -30 -35 -20 -19 -33 -35 -28 -35 5 0 -1 -7 -13 -16 -12 -8 -20 -20
-16 -25 3 -5 1 -8 -4 -7 -6 2 -9 0 -9 -4 1 -4 -8 -15 -21 -23 -12 -9 -20 -20
-17 -25 3 -5 0 -12 -6 -16 -8 -5 -9 -3 -4 7 8 12 6 12 -8 0 -10 -8 -16 -16
-13 -18 2 -2 -7 -16 -20 -30 -14 -15 -23 -32 -20 -39 3 -7 1 -14 -4 -16 -4 -2
-11 -20 -14 -42 -4 -21 -9 -42 -12 -47 -3 -5 -7 -18 -10 -29 -2 -11 -6 -29 -9
-40 -12 -46 -16 -66 -18 -75 -2 -5 -6 -16 -10 -23 -5 -7 -9 -26 -9 -42 -1 -17
-5 -30 -11 -30 -5 0 -7 -7 -4 -15 4 -8 2 -17 -4 -21 -6 -3 -8 -12 -5 -20 3 -7
2 -16 -3 -18 -6 -4 -28 -84 -33 -121 0 -5 -9 -34 -19 -63 -10 -30 -18 -57 -18
-60 1 -4 0 -9 -1 -12 -2 -5 -7 -29 -13 -52 -1 -7 -6 -19 -11 -26 -4 -7 -5 -16
-2 -19 3 -3 2 -11 -3 -17 -5 -6 -11 -24 -12 -41 -2 -16 -7 -32 -10 -35 -4 -3
-9 -20 -12 -38 -3 -19 -7 -35 -9 -37 -5 -4 -101 -17 -125 -16 -13 0 -23 -4
-23 -9 0 -5 26 -49 57 -97 64 -97 67 -103 102 -162 14 -23 28 -41 33 -41 4 0
8 -5 8 -10 0 -11 150 -245 174 -272 9 -10 16 -21 16 -25 0 -5 7 -16 15 -25 8
-10 12 -18 10 -18 -3 0 -1 -9 5 -20 6 -11 7 -19 3 -18 -4 2 -37 -25 -73 -58
-36 -34 -81 -77 -100 -94 -19 -18 -34 -37 -33 -42 2 -4 -3 -7 -10 -5 -6 1 -11
-5 -9 -13 2 -8 1 -12 -3 -8 -10 9 -45 -24 -38 -35 3 -6 2 -7 -4 -4 -5 4 -19
-4 -30 -16 -10 -12 -47 -47 -81 -78 -34 -31 -62 -61 -62 -68 0 -6 -3 -10 -8
-9 -12 4 -51 -35 -45 -45 3 -6 2 -7 -4 -4 -5 4 -38 -23 -72 -58 -34 -36 -65
-65 -69 -65 -11 0 -67 -63 -65 -72 2 -4 0 -7 -5 -6 -12 4 -51 -35 -45 -45 3
-6 2 -7 -4 -4 -5 4 -19 -4 -29 -16 -11 -12 -57 -55 -102 -96 -44 -41 -78 -79
-75 -84 3 -6 1 -7 -6 -3 -22 14 -21 -20 2 -69 14 -28 27 -60 31 -72 4 -13 12
-23 18 -23 6 0 8 -3 5 -6 -4 -4 7 -31 23 -60 16 -30 27 -54 25 -54 -2 0 9 -27
26 -59 16 -33 29 -65 29 -70 0 -6 5 -11 12 -11 6 0 9 -3 5 -6 -3 -4 9 -36 27
-73 34 -67 33 -81 -4 -89 -8 -2 -28 -10 -44 -18 -16 -8 -35 -14 -43 -14 -7 0
-13 -5 -13 -11 0 -5 -5 -7 -10 -4 -5 3 -10 2 -10 -2 0 -5 -10 -10 -22 -10 -13
-1 -24 -7 -26 -13 -2 -5 -7 -8 -12 -5 -4 3 -33 -8 -64 -24 -31 -17 -56 -27
-56 -24 0 3 -7 -1 -17 -8 -9 -8 -19 -14 -22 -13 -14 2 -41 -9 -41 -17 0 -5 -7
-6 -15 -3 -8 4 -15 1 -15 -6 0 -6 -4 -8 -10 -5 -5 3 -10 1 -10 -5 0 -6 -4 -9
-9 -5 -5 3 -12 1 -16 -5 -4 -6 -10 -8 -15 -5 -5 3 -14 0 -22 -7 -7 -7 -20 -14
-28 -16 -8 -2 -17 -8 -18 -13 -2 -5 -8 -7 -13 -4 -4 3 -22 -1 -39 -10 -16 -8
-31 -14 -32 -13 -2 1 -16 -5 -33 -14 -45 -24 -89 -42 -97 -40 -17 4 -7 -14 17
-32 14 -10 25 -24 25 -31 0 -7 14 -24 32 -39 17 -14 28 -26 22 -26 -5 -1 2 -7
16 -15 14 -8 22 -14 18 -15 -9 0 22 -39 67 -85 16 -16 29 -33 28 -37 -2 -3 5
-12 14 -20 14 -11 16 -11 8 1 -5 10 -4 12 3 7 7 -4 12 -13 12 -20 0 -7 11 -21
24 -32 14 -10 23 -21 20 -25 -2 -4 11 -19 29 -33 39 -31 39 -31 12 -246 -4
-32 -8 -64 -20 -170 -3 -19 -6 -54 -9 -78 -2 -23 -10 -50 -18 -59 -11 -14 -11
-16 2 -8 8 4 2 -6 -15 -23 -86 -90 -99 -105 -85 -98 8 4 5 -1 -8 -10 -12 -9
-22 -23 -22 -31 0 -8 -5 -11 -10 -8 -6 3 -10 2 -10 -3 0 -5 -15 -24 -33 -42
-17 -18 -25 -29 -17 -25 8 5 -4 -11 -28 -35 -53 -54 -60 -80 -38 -141 10 -27
15 -52 12 -58 -3 -5 -2 -11 3 -13 5 -1 12 -16 15 -33 2 -16 10 -47 16 -68 9
-32 7 -52 -16 -135 -15 -53 -28 -104 -29 -112 -1 -8 -5 -22 -9 -30 -14 -35
-44 -155 -40 -162 3 -4 1 -8 -5 -8 -5 0 -12 -15 -16 -32 -4 -18 -23 -89 -43
-158 -19 -69 -36 -132 -37 -140 0 -9 -4 -20 -8 -26 -3 -6 -11 -28 -16 -50 -5
-21 -19 -73 -31 -114 -12 -41 -23 -82 -25 -90 -2 -8 -4 -17 -6 -20 -1 -3 -3
-9 -4 -15 -1 -5 -4 -17 -7 -25 -40 -117 -38 64 -38 -3122 0 -2659 2 -3008 15
-3022 8 -8 15 -19 15 -25 0 -6 5 -11 10 -11 6 0 10 -5 10 -10 0 -18 57 -90 65
-82 5 4 5 1 0 -7 -4 -7 -3 -16 2 -20 5 -3 38 -49 73 -101 35 -52 67 -96 72
-98 4 -2 8 -8 8 -13 0 -13 63 -99 73 -99 4 0 6 -4 3 -8 -3 -5 6 -20 19 -34 13
-14 21 -28 18 -32 -3 -3 2 -8 11 -12 9 -3 14 -9 11 -13 -2 -4 10 -23 27 -42
17 -19 31 -36 31 -39 -2 -10 31 -60 39 -60 4 0 8 -7 8 -15 0 -8 5 -15 10 -15
6 0 10 -5 10 -11 0 -18 37 -59 45 -51 5 4 6 2 2 -4 -3 -5 23 -51 57 -102 l63
-92 -8 -52 c-9 -56 -16 -97 -23 -138 -11 -62 -18 -107 -21 -130 -1 -14 -5 -36
-9 -50 -4 -14 -9 -41 -11 -60 -4 -41 -27 -177 -40 -240 -7 -34 -17 -99 -20
-135 -2 -16 -4 -30 -5 -30 -1 0 -3 -9 -5 -20 -2 -11 -6 -34 -10 -51 -7 -38
-17 -121 -19 -153 -1 -26 -1 -26 97 -35 34 -3 78 -8 98 -11 20 -3 67 -8 105
-11 38 -4 85 -8 104 -10 19 -2 58 -5 85 -8 42 -3 50 -7 47 -23 -2 -10 -4 -24
-4 -30 -1 -7 -6 -13 -11 -13 -6 0 -8 -3 -5 -6 4 -3 -9 -33 -28 -66 -19 -33
-34 -62 -34 -64 0 -3 -31 -67 -70 -144 -38 -77 -67 -140 -63 -140 3 0 -1 -8
-9 -17 -9 -10 -26 -40 -38 -68 -13 -27 -58 -121 -101 -207 -43 -87 -76 -158
-73 -158 3 0 -2 -7 -10 -16 -9 -8 -14 -20 -11 -25 4 -5 2 -9 -3 -9 -9 0 -34
-49 -34 -67 -1 -4 17 -8 38 -9 22 0 44 -3 49 -5 10 -6 80 -12 147 -13 21 -1
38 -3 38 -6 0 -3 12 -5 28 -6 43 -2 164 -13 192 -18 14 -3 59 -7 100 -10 41
-3 86 -8 100 -10 13 -3 58 -8 100 -11 41 -3 86 -7 100 -9 14 -2 57 -7 95 -11
39 -3 84 -8 100 -10 17 -2 59 -7 95 -10 156 -14 172 -19 165 -54 -1 -9 -6 -47
-9 -86 -4 -38 -9 -81 -11 -95 -2 -14 -7 -56 -10 -95 -3 -38 -8 -83 -10 -100
-3 -16 -7 -55 -10 -85 -3 -30 -7 -71 -10 -90 -3 -19 -7 -66 -10 -105 -3 -38
-7 -81 -10 -95 -3 -14 -7 -56 -10 -95 -3 -38 -7 -81 -10 -95 -3 -14 -7 -56
-10 -95 -2 -38 -7 -81 -9 -94 -3 -13 -8 -53 -10 -90 -3 -36 -7 -77 -10 -91 -2
-14 -7 -56 -11 -95 -8 -85 -8 -79 -6 -85 2 -3 4 -25 7 -50 4 -44 11 -85 14
-85 1 0 3 -13 4 -30 2 -16 7 -55 11 -85 4 -30 8 -63 8 -72 1 -10 4 -18 7 -18
3 0 6 -12 6 -27 2 -39 12 -75 24 -87 5 -5 10 -18 10 -28 0 -10 5 -18 11 -18 5
0 8 -4 5 -8 -3 -5 1 -19 7 -33 7 -13 19 -43 26 -66 8 -24 18 -43 23 -43 4 0 7
-3 6 -7 -3 -10 21 -81 35 -108 6 -11 12 -22 12 -25 4 -25 28 -80 35 -80 5 0 7
-6 4 -14 -3 -7 1 -20 8 -27 7 -8 13 -18 13 -24 1 -22 48 -135 57 -135 5 0 7
-4 3 -9 -5 -9 13 -59 25 -71 3 -3 7 -14 8 -25 2 -10 12 -37 22 -60 10 -22 21
-50 25 -63 3 -12 11 -22 16 -22 6 0 8 -4 5 -8 -5 -9 61 -181 73 -192 3 -3 6
-9 6 -15 0 -20 48 -135 56 -135 5 0 6 -7 3 -15 -4 -10 -1 -14 7 -11 16 6 96
13 209 21 41 2 102 7 135 11 33 3 83 8 110 10 193 14 285 21 385 30 139 13
149 12 129 -12 -6 -8 -8 -14 -4 -14 5 0 0 -9 -10 -20 -10 -11 -15 -20 -11 -20
4 0 -2 -13 -13 -29 -11 -15 -18 -31 -14 -35 3 -3 1 -6 -6 -6 -7 0 -9 -4 -6
-10 3 -5 2 -10 -2 -10 -8 0 -30 -48 -29 -61 1 -4 -8 -16 -18 -28 -11 -12 -15
-21 -11 -21 4 0 0 -9 -10 -20 -10 -11 -14 -20 -10 -20 4 0 0 -9 -10 -20 -10
-11 -14 -20 -9 -20 5 0 4 -4 -1 -8 -12 -8 -39 -64 -37 -74 1 -5 -3 -8 -9 -8
-5 0 -7 -4 -4 -10 3 -6 2 -10 -3 -10 -9 0 -25 -37 -23 -52 1 -5 -4 -8 -10 -8
-5 0 -8 -4 -5 -9 4 -5 1 -11 -4 -13 -6 -2 -12 -10 -13 -19 -2 -9 -11 -28 -20
-42 -10 -15 -14 -27 -11 -27 4 0 -1 -9 -11 -20 -10 -11 -14 -20 -10 -20 4 0 0
-9 -10 -20 -10 -11 -14 -20 -10 -20 4 0 1 -8 -8 -18 -10 -10 -14 -22 -10 -25
3 -4 1 -7 -6 -7 -7 0 -10 -4 -6 -9 3 -5 1 -12 -5 -16 -9 -6 -37 -63 -40 -83
-1 -4 -9 -15 -17 -24 -9 -10 -12 -18 -8 -18 4 0 0 -9 -10 -20 -10 -11 -14 -20
-10 -20 4 0 0 -9 -10 -20 -10 -11 -14 -20 -9 -20 5 0 4 -4 -1 -8 -12 -8 -39
-64 -37 -74 1 -5 -3 -8 -9 -8 -5 0 -7 -4 -4 -10 3 -6 2 -10 -3 -10 -9 0 -25
-37 -23 -52 1 -5 -4 -8 -11 -8 -6 0 -9 -3 -5 -6 3 -4 -1 -13 -9 -21 -8 -8 -12
-19 -9 -24 4 -5 1 -9 -6 -9 -7 0 -9 -3 -6 -7 4 -3 0 -15 -10 -25 -9 -10 -12
-18 -8 -18 4 0 0 -9 -10 -20 -10 -11 -14 -20 -9 -20 5 0 4 -4 -1 -8 -11 -7
-39 -66 -33 -68 1 -1 -6 -11 -16 -23 -11 -12 -15 -21 -11 -21 4 0 2 -8 -6 -17
-8 -10 -19 -27 -26 -39 -11 -20 -10 -21 23 -9 18 6 37 14 40 18 4 4 16 7 26 7
10 0 18 5 18 12 0 6 3 9 6 5 4 -3 19 0 35 9 16 8 29 12 29 8 0 -4 7 0 16 7 9
7 25 15 37 16 12 2 24 8 28 14 3 6 9 10 13 9 10 -3 171 63 174 71 2 4 10 5 18
2 8 -3 14 -1 14 4 0 5 6 10 13 10 6 0 35 10 62 23 28 13 56 23 63 23 6 0 12 4
12 9 0 5 4 7 9 4 5 -3 14 1 21 9 7 8 16 13 20 10 7 -4 38 7 145 55 17 8 33 14
38 16 4 1 9 3 12 4 3 1 8 3 13 5 4 1 20 7 35 13 16 7 33 12 38 12 5 0 9 5 9
10 0 6 3 9 8 8 12 -2 62 14 62 21 0 4 10 7 22 8 11 1 24 6 27 10 3 4 13 9 21
11 25 5 124 46 150 62 13 8 24 14 25 12 1 -8 55 11 55 19 0 5 3 8 8 8 4 -1 10
0 15 1 4 1 10 3 15 5 4 1 21 8 37 15 17 7 32 14 35 14 17 4 106 41 110 45 3 4
12 7 20 9 8 2 29 9 45 16 42 19 75 28 75 21 0 -3 -7 -19 -15 -34 -8 -16 -11
-31 -8 -35 4 -3 1 -6 -6 -6 -7 0 -9 -4 -6 -10 3 -6 2 -10 -4 -10 -6 0 -13 -11
-17 -25 -3 -14 -10 -25 -14 -25 -5 0 -11 -13 -15 -30 -4 -16 -10 -30 -15 -30
-8 0 -23 -38 -21 -52 1 -5 -3 -8 -8 -8 -9 0 -36 -56 -30 -63 2 -2 -4 -11 -13
-21 -10 -10 -18 -26 -18 -37 0 -11 -4 -18 -9 -15 -5 3 -11 -4 -15 -17 -3 -12
-4 -22 -3 -22 1 0 -7 -13 -18 -30 -36 -53 -75 -132 -68 -139 3 -3 2 -6 -4 -6
-10 0 -69 -109 -65 -122 1 -5 -2 -8 -7 -8 -8 0 -27 -43 -29 -64 0 -5 -5 -12
-10 -15 -10 -7 -83 -147 -81 -157 0 -4 -3 -10 -8 -13 -15 -11 -43 -68 -36 -75
3 -3 0 -6 -7 -6 -7 0 -11 -3 -7 -6 3 -3 -2 -14 -11 -25 -9 -11 -17 -23 -18
-27 0 -9 -37 -85 -44 -92 -13 -13 -40 -70 -33 -70 4 0 3 -4 -3 -8 -15 -10 -84
-143 -70 -135 6 3 3 -2 -6 -13 -28 -32 -26 -47 7 -49 46 -3 302 -17 375 -21
208 -10 278 -17 315 -34 23 -10 54 -22 70 -26 17 -4 32 -11 35 -15 3 -5 15
-10 25 -12 11 -2 31 -9 45 -14 14 -6 28 -9 32 -6 5 2 8 0 8 -5 0 -9 38 -24 65
-26 5 -1 11 -9 13 -20 3 -12 0 -16 -7 -11 -7 4 -18 1 -26 -5 -8 -7 -15 -9 -15
-6 0 4 -10 1 -23 -6 -25 -14 -21 -13 -64 -23 -18 -4 -33 -11 -33 -16 0 -5 -3
-8 -7 -7 -10 3 -114 -32 -128 -42 -5 -4 -25 -11 -43 -15 -17 -3 -32 -11 -32
-16 0 -6 -4 -8 -9 -5 -11 7 -71 -16 -71 -27 0 -4 -5 -5 -10 -2 -6 4 -17 1 -25
-5 -8 -7 -15 -9 -15 -6 0 4 -10 1 -22 -6 -13 -7 -26 -13 -30 -14 -5 -1 -9 -2
-10 -4 -2 -1 -10 -3 -18 -5 -25 -5 -70 -24 -70 -29 0 -3 6 -3 12 -1 12 4 235
10 763 19 l201 3 39 -74 c21 -40 42 -73 47 -73 4 0 8 -9 8 -20 0 -11 5 -20 10
-20 6 0 10 -6 10 -14 0 -8 3 -16 8 -18 9 -4 42 -69 47 -94 2 -10 4 -19 5 -19
1 0 4 -13 6 -30 3 -16 10 -33 16 -36 6 -4 8 -12 4 -18 -4 -6 -2 -19 4 -30 5
-11 11 -31 12 -45 1 -15 5 -26 8 -26 3 0 7 -14 8 -32 2 -17 8 -38 14 -45 6 -7
8 -13 5 -13 -3 0 -1 -15 4 -32 6 -18 12 -44 15 -58 2 -14 7 -32 11 -40 7 -17
9 -25 16 -60 3 -14 10 -37 16 -52 6 -16 8 -28 6 -28 -3 0 1 -16 9 -35 8 -19
13 -35 11 -35 -2 0 1 -15 6 -32 6 -18 13 -46 16 -63 3 -16 8 -32 11 -35 4 -3
8 -16 10 -30 1 -14 3 -31 4 -37 1 -7 4 -13 8 -13 3 0 6 -8 7 -17 1 -20 4 -32
27 -118 10 -33 19 -67 21 -75 2 -8 4 -15 5 -15 2 0 7 -22 15 -60 6 -32 13 -60
15 -62 3 -3 2 -1 20 -75 7 -32 17 -58 22 -58 4 0 8 4 8 8 0 4 18 28 39 52 22
25 37 49 34 54 -4 5 -2 7 3 4 5 -3 15 0 22 8 7 8 11 14 8 14 -2 0 10 15 27 33
18 18 50 54 72 81 22 26 46 54 53 61 6 8 12 19 12 25 0 6 4 9 8 6 5 -3 15 6
22 19 13 25 30 34 30 16 0 -5 12 -82 26 -172 28 -178 29 -187 39 -269 4 -30
11 -60 16 -66 5 -6 39 -11 76 -12 37 0 101 -3 142 -6 41 -3 133 -8 205 -12 72
-3 158 -7 191 -9 33 -2 77 -4 98 -4 23 -1 36 -5 35 -13 -4 -18 -22 -37 -31
-31 -4 2 -6 0 -5 -6 2 -6 -15 -27 -38 -48 -22 -21 -29 -29 -15 -18 l26 20 -24
-27 c-14 -16 -30 -28 -37 -28 -7 0 -16 -5 -20 -12 -5 -7 -2 -8 7 -3 8 4 -11
-16 -41 -45 -30 -29 -48 -50 -40 -45 8 5 -6 -12 -31 -36 -25 -25 -51 -55 -58
-67 -6 -12 -18 -22 -26 -22 -8 0 -14 -5 -13 -12 2 -6 -8 -17 -22 -25 -14 -7
-21 -13 -17 -13 5 0 -5 -14 -22 -31 -17 -17 -31 -35 -31 -40 0 -5 -7 -9 -15
-9 -8 0 -15 -4 -15 -9 0 -5 -18 -28 -40 -51 -22 -23 -40 -46 -40 -51 0 -6 -4
-7 -10 -4 -5 3 -10 -1 -10 -10 0 -9 -5 -13 -10 -10 -6 3 -10 1 -10 -5 0 -6
-20 -30 -45 -54 l-44 -43 47 3 c161 10 299 20 422 29 96 7 149 11 295 19 44 3
80 6 80 6 0 1 27 4 60 5 33 2 92 6 130 9 386 30 374 30 380 -17 1 -12 6 -42
10 -67 4 -25 9 -58 11 -75 1 -16 3 -30 4 -30 1 0 3 -11 5 -25 2 -14 6 -43 10
-65 3 -22 8 -53 10 -70 3 -16 6 -43 9 -60 2 -16 7 -50 11 -75 4 -25 9 -56 10
-70 1 -14 3 -25 4 -25 2 0 4 -16 6 -35 2 -19 6 -46 9 -60 7 -32 17 -95 21
-140 2 -19 4 -36 5 -37 2 -2 3 -11 4 -20 1 -10 6 -43 11 -73 5 -30 10 -64 11
-75 2 -19 9 -64 21 -130 2 -16 6 -41 8 -55 4 -36 14 -100 20 -135 5 -32 15
-104 20 -145 2 -14 4 -25 5 -25 2 0 6 -31 14 -100 2 -16 5 -30 6 -30 1 0 3
-16 5 -35 2 -19 6 -46 8 -60 7 -31 17 -93 23 -140 2 -19 7 -51 10 -70 14 -90
16 -106 17 -127 1 -17 4 -20 14 -11 8 6 12 17 9 25 -3 7 -1 13 4 13 6 0 10 7
10 15 0 8 5 15 10 15 9 0 26 31 29 53 0 4 10 17 21 29 11 12 20 28 20 35 0 7
5 13 10 13 6 0 10 5 10 11 0 6 9 24 21 40 11 16 17 29 12 29 -4 0 0 5 10 11 9
6 15 14 12 20 -4 5 -1 9 5 9 6 0 9 4 6 9 -3 5 1 11 9 15 8 3 15 12 15 19 0 8
7 20 15 27 8 7 12 16 9 21 -3 5 0 9 6 9 6 0 8 4 5 10 -3 5 -1 10 4 10 6 0 11
7 11 15 0 8 5 15 11 15 5 0 8 4 5 9 -3 5 1 12 10 15 8 3 12 10 9 16 -3 5 -1
10 5 10 6 0 9 4 6 8 -3 5 4 16 15 25 10 9 19 23 19 31 0 7 7 19 15 26 8 7 12
16 9 21 -3 5 0 9 5 9 6 0 11 7 11 15 0 8 5 15 11 15 5 0 7 5 4 10 -3 6 -2 10
3 10 7 0 36 50 33 58 -1 1 6 10 15 20 27 30 65 94 52 87 -7 -4 -5 0 4 8 10 8
15 17 11 20 -3 4 -1 7 6 7 7 0 10 4 7 9 -3 5 1 12 10 15 9 4 14 9 11 12 -3 3
1 13 9 22 8 10 14 21 13 25 0 5 8 15 18 24 11 9 12 12 3 8 -8 -4 -6 1 4 9 11
9 16 16 12 16 -4 0 0 7 8 16 9 8 16 22 16 30 0 8 5 14 11 14 5 0 8 4 5 9 -4 5
-3 11 2 13 4 1 19 18 32 37 13 20 18 31 9 27 -7 -4 -5 0 5 8 11 9 17 16 13 16
-4 0 0 8 8 18 8 9 15 21 14 26 0 5 3 12 8 15 15 11 55 73 57 88 1 8 7 18 12
21 10 7 27 43 24 51 -1 2 2 7 7 10 19 14 47 54 33 47 -8 -4 -6 0 4 8 11 9 17
16 13 16 -4 0 0 8 8 18 8 9 15 21 14 25 0 5 8 15 18 24 10 8 11 11 3 7 -8 -4
-5 3 8 16 13 12 26 20 28 17 3 -3 7 -40 9 -83 2 -44 6 -110 10 -149 3 -38 8
-106 11 -150 11 -160 13 -191 19 -265 6 -90 12 -182 20 -310 10 -155 14 -205
15 -205 2 0 12 -171 12 -219 1 -44 2 -47 14 -31 8 10 14 15 14 11 0 -4 21 5
48 20 26 15 64 35 85 46 20 10 37 23 37 29 0 6 5 7 11 3 6 -3 14 -3 18 2 3 5
29 21 56 35 105 55 170 93 177 103 4 6 8 7 8 2 0 -5 8 -3 18 5 46 39 137 67
152 48 3 -4 23 -9 45 -12 22 -3 85 -16 140 -27 55 -12 111 -23 125 -26 14 -2
57 -10 95 -19 39 -9 81 -19 95 -21 14 -3 27 -9 28 -15 2 -5 10 -16 18 -23 8
-8 14 -22 14 -30 0 -9 5 -16 10 -16 6 0 10 -6 10 -14 0 -7 7 -19 15 -26 8 -7
13 -16 10 -20 -2 -4 3 -16 13 -26 9 -11 18 -26 20 -34 2 -7 11 -20 20 -28 9
-7 11 -11 4 -7 -10 5 14 -37 45 -80 5 -6 9 -17 11 -25 2 -8 9 -18 15 -22 7 -4
8 -8 2 -8 -6 0 -6 -3 0 -8 6 -4 22 -28 35 -54 14 -27 29 -48 33 -48 5 0 6 -4
2 -9 -3 -5 1 -16 9 -24 8 -8 12 -17 9 -21 -4 -3 -1 -6 5 -6 7 0 12 -7 12 -15
0 -8 5 -15 11 -15 5 0 8 -4 4 -9 -3 -6 2 -14 11 -19 9 -5 15 -13 15 -18 -2
-14 32 -74 42 -74 4 0 5 -4 2 -10 -3 -5 -1 -10 5 -10 6 0 9 -4 5 -9 -3 -6 5
-20 17 -32 13 -12 17 -19 10 -14 -11 6 -11 3 0 -14 7 -12 16 -21 21 -21 4 0 5
-4 2 -10 -3 -5 -3 -10 2 -10 4 0 15 -15 22 -32 8 -18 22 -39 30 -46 13 -11 13
-12 1 -7 -13 6 -13 5 0 -7 8 -7 16 -20 18 -27 2 -8 11 -21 20 -29 9 -7 11 -11
5 -7 -7 3 2 -18 20 -47 17 -29 35 -55 40 -56 4 -2 5 -8 2 -12 -3 -5 2 -18 12
-28 10 -10 19 -25 21 -33 2 -7 7 -16 11 -19 5 -3 12 -15 15 -28 4 -12 17 -32
29 -44 12 -11 16 -18 10 -14 -7 4 2 -17 20 -46 17 -29 35 -55 40 -56 4 -2 5
-8 1 -13 -3 -5 0 -9 5 -9 6 0 10 -3 9 -8 -3 -10 21 -53 46 -81 11 -13 14 -20
7 -16 -9 5 -5 -5 7 -22 12 -17 22 -36 22 -42 0 -6 5 -11 10 -11 6 0 10 -6 10
-14 0 -7 7 -19 15 -26 14 -11 22 -7 55 31 22 24 47 53 57 64 22 24 82 95 131
154 20 25 48 55 61 68 13 13 21 23 17 23 -6 0 18 25 46 48 13 10 18 10 24 1 5
-8 3 -10 -7 -5 -8 4 -3 -1 11 -12 13 -11 28 -18 32 -15 5 2 7 0 6 -5 -2 -6 0
-9 3 -8 3 0 17 -12 32 -28 15 -16 27 -25 27 -20 0 5 7 -2 16 -14 8 -12 20 -20
25 -17 5 4 9 1 9 -5 0 -12 50 -59 63 -60 4 0 19 -10 32 -22 13 -13 38 -34 56
-48 17 -14 41 -34 52 -45 11 -12 17 -14 13 -5 -5 9 -2 8 7 -2 8 -10 19 -18 25
-18 6 0 14 -5 18 -12 5 -7 2 -9 -7 -4 -8 4 -5 1 5 -6 10 -7 26 -21 35 -30 8
-10 18 -18 22 -18 4 0 23 -16 44 -35 21 -19 42 -32 47 -29 4 3 8 -2 8 -10 0
-9 4 -16 10 -16 5 0 28 -18 52 -40 24 -22 48 -40 53 -40 6 0 16 -9 23 -20 7
-11 18 -20 26 -20 8 0 17 -7 20 -16 3 -8 11 -12 16 -9 6 4 9 1 8 -7 -2 -7 3
-12 10 -10 6 1 12 -2 12 -6 0 -5 30 -33 68 -63 37 -30 73 -61 80 -69 12 -13
13 -13 7 0 -4 8 3 4 14 -10 11 -14 21 -22 21 -18 0 3 12 -6 28 -20 15 -15 49
-45 76 -67 45 -36 55 -40 115 -42 36 -1 107 -4 156 -7 112 -7 274 -15 380 -21
44 -2 136 -7 205 -11 69 -4 168 -8 222 -8 53 -1 95 -4 93 -7 -2 -3 17 -11 43
-19 26 -7 49 -14 52 -15 3 -1 23 -9 45 -19 21 -9 46 -18 55 -20 19 -4 44 -13
97 -37 24 -10 45 -19 48 -19 4 0 25 -9 49 -19 23 -11 48 -21 56 -23 8 -2 21
-9 28 -16 8 -7 18 -10 23 -7 5 4 9 1 9 -5 0 -7 7 -10 15 -6 8 3 15 1 15 -5 0
-6 7 -8 16 -5 8 3 13 2 10 -2 -5 -8 74 -35 85 -30 3 2 14 -5 24 -15 9 -10 24
-16 31 -13 8 3 14 1 14 -4 0 -6 8 -10 18 -10 10 0 22 -4 28 -10 5 -5 18 -11
29 -13 11 -2 29 -8 40 -14 27 -14 98 -38 108 -35 4 1 7 -2 7 -8 0 -6 3 -9 8
-8 4 1 19 -4 33 -10 15 -6 35 -12 45 -14 11 -2 21 -6 24 -9 3 -4 50 -23 105
-43 55 -21 109 -41 120 -46 28 -13 128 -52 140 -54 6 -1 26 -9 45 -18 40 -17
112 -42 120 -40 3 0 11 -4 17 -10 7 -6 20 -8 28 -4 8 3 15 2 15 -2 0 -4 8 -8
18 -9 9 -1 39 -6 67 -12 27 -5 53 -7 57 -5 5 3 8 1 8 -4 0 -5 8 -9 18 -9 9 1
40 -4 67 -11 28 -6 64 -14 80 -16 17 -2 31 -5 33 -6 1 -2 10 -3 20 -4 9 -1 33
-6 52 -11 19 -4 46 -10 60 -12 52 -9 65 -11 65 -13 0 -2 9 -4 20 -5 44 -7 82
-14 117 -23 20 -5 39 -7 42 -5 2 3 11 1 18 -3 7 -5 20 -9 28 -11 8 -1 31 -5
50 -9 19 -3 45 -8 57 -11 13 -2 35 -6 50 -9 16 -3 37 -7 48 -9 11 -1 28 -6 37
-10 9 -4 21 -4 27 -1 5 4 12 2 16 -3 3 -5 13 -10 23 -10 9 0 31 -3 47 -6 38
-8 135 -12 460 -19 175 -3 271 -9 290 -17 17 -7 35 -13 40 -13 6 -1 15 -6 22
-12 7 -6 32 -18 57 -25 26 -7 46 -16 46 -20 0 -4 12 -10 28 -15 37 -10 31 -8
87 -33 28 -12 55 -23 60 -24 6 -1 12 -4 15 -7 11 -12 128 -58 134 -53 3 4 6 2
6 -3 0 -9 51 -32 75 -34 6 -1 18 -8 27 -17 9 -8 22 -12 27 -8 6 3 11 2 11 -3
0 -9 40 -24 56 -21 4 0 10 -3 13 -8 6 -10 186 -87 196 -84 3 1 13 -5 21 -14 9
-8 20 -13 25 -10 5 4 9 2 9 -4 0 -5 14 -13 32 -16 17 -4 45 -16 62 -26 30 -18
112 -19 3011 -19 3076 1 3015 0 3015 36 0 5 9 15 20 22 12 7 18 18 14 24 -4 6
-3 8 3 5 8 -5 43 25 43 38 0 3 15 20 33 38 57 58 142 160 139 168 -1 5 2 8 7
7 5 -2 20 9 34 24 14 16 24 28 22 28 -2 0 11 15 28 34 72 77 82 90 79 100 -2
6 -1 8 3 4 4 -4 18 -3 32 3 13 5 36 11 51 14 15 2 90 21 167 40 133 34 184 45
213 47 6 1 12 4 12 8 0 3 8 6 18 7 43 3 62 8 62 16 0 4 5 5 10 2 6 -4 27 -1
48 6 20 7 40 12 43 11 4 0 22 3 40 9 19 6 50 13 69 16 19 3 40 9 46 14 6 5 14
6 17 3 3 -3 12 -2 19 2 7 5 24 10 38 12 14 2 59 12 100 23 41 12 83 21 93 20
9 0 17 5 17 10 0 6 4 8 9 4 11 -6 195 37 199 47 2 4 10 4 17 2 8 -3 20 -2 27
2 7 4 19 9 28 10 21 2 52 9 150 33 47 11 155 37 240 56 223 52 225 53 225 55
0 1 9 3 20 4 27 3 126 26 145 33 8 4 18 6 22 5 3 -1 42 8 85 19 58 15 89 19
123 13 25 -5 50 -9 55 -9 6 -1 53 -12 105 -24 124 -30 190 -40 190 -30 0 5 3
8 8 7 12 -3 82 25 82 34 0 4 3 7 8 6 9 -3 123 42 137 54 5 4 17 8 27 8 10 0
18 5 18 11 0 5 4 8 9 4 5 -3 15 0 23 7 7 7 18 13 23 14 10 0 24 6 110 45 28
12 53 22 58 21 4 -1 7 3 7 9 0 5 5 7 10 4 6 -3 24 3 40 15 17 12 30 19 30 16
0 -6 122 44 130 54 3 3 12 6 20 8 8 2 31 11 50 20 19 9 40 17 45 17 6 1 9 6 7
13 -1 7 4 11 10 10 7 -2 12 3 10 10 -1 8 2 11 7 8 9 -6 29 12 30 29 1 6 7 10
14 10 6 1 11 7 9 14 -1 7 2 10 7 7 9 -6 38 22 34 33 -2 3 3 6 10 6 6 1 11 7 9
14 -1 7 2 10 7 7 9 -6 38 22 34 33 -2 3 0 6 5 6 4 0 18 10 32 23 16 15 37 22
64 23 23 0 129 2 236 5 107 3 257 6 332 7 l137 2 -4 75 c-8 157 -16 286 -21
320 -2 19 -6 69 -9 110 -3 41 -7 109 -10 150 -12 154 -12 180 -1 173 32 -19
110 -74 151 -108 17 -14 33 -25 36 -25 4 0 21 -13 39 -30 18 -16 36 -28 40
-25 4 3 11 -2 14 -11 3 -8 10 -12 16 -9 5 3 10 2 10 -4 0 -5 21 -25 48 -42 26
-18 50 -37 54 -43 4 -6 8 -7 8 -3 0 5 7 1 17 -8 26 -26 121 -95 132 -95 5 0
12 -7 15 -16 3 -8 10 -13 15 -10 5 3 11 -1 15 -9 3 -8 12 -15 21 -15 8 0 15
-4 15 -9 0 -5 23 -24 51 -42 28 -18 57 -39 65 -46 8 -8 14 -12 14 -9 0 3 14
-8 32 -24 17 -16 35 -27 40 -24 4 3 8 1 8 -4 0 -5 19 -22 43 -38 23 -16 45
-33 49 -39 4 -5 8 -6 8 -1 0 5 8 -1 19 -12 27 -32 31 -18 15 51 -8 34 -17 77
-20 97 -3 19 -10 40 -15 46 -5 6 -7 13 -5 15 3 2 -4 40 -15 84 -11 44 -22 96
-25 115 -2 19 -12 61 -20 93 -15 59 -30 129 -40 182 -3 17 -9 43 -14 59 -6 16
-10 40 -10 52 0 13 -4 24 -10 24 -5 0 -7 7 -4 15 3 8 2 20 -2 27 -4 7 -9 19
-10 28 -4 43 -16 106 -22 115 -10 16 -9 42 2 43 6 0 47 3 91 6 44 4 96 8 115
11 19 2 73 7 120 10 47 3 105 8 130 11 25 2 74 7 110 9 36 3 90 7 120 10 87 8
159 14 245 20 44 3 100 7 125 10 46 5 87 9 240 20 88 7 130 12 135 17 2 2 5
14 7 28 1 14 5 27 8 30 7 7 63 182 63 198 0 6 4 12 8 12 7 0 24 49 20 63 -1 5
3 6 8 3 7 -5 24 19 22 31 0 1 13 17 29 35 17 18 30 38 30 45 0 7 5 13 10 13 6
0 10 7 10 15 0 8 3 15 8 15 4 0 16 12 26 27 12 16 14 23 5 18 -8 -4 -3 3 11
16 14 13 34 25 45 25 45 3 139 16 146 20 4 2 27 6 50 9 24 3 55 8 69 10 176
30 318 53 375 60 22 3 47 7 55 10 8 2 35 7 60 11 25 3 54 8 65 10 11 1 38 6
60 10 22 4 48 7 57 6 10 0 25 9 33 21 8 12 15 17 15 12 1 -6 10 1 20 14 11 13
20 19 20 15 1 -5 10 2 20 15 11 13 20 19 20 15 0 -5 4 -4 8 1 4 6 26 24 49 41
24 17 39 35 35 39 -4 5 -2 5 4 2 5 -3 22 4 36 16 14 12 36 29 48 37 50 34 166
123 175 135 6 6 15 13 20 14 6 2 9 7 7 12 -1 5 2 8 7 7 11 -4 46 19 78 50 13
12 28 22 33 22 5 0 15 9 23 20 8 11 16 18 19 15 2 -3 22 11 44 31 21 20 41 36
44 36 14 1 29 11 25 17 -2 4 1 8 8 8 14 0 179 109 188 125 3 5 10 10 15 10 20
1 34 11 28 19 -3 5 -1 8 4 7 12 -4 132 73 132 85 0 4 5 5 10 2 6 -3 13 1 16 9
3 9 11 16 18 16 6 0 31 14 55 30 24 17 41 30 36 30 -4 0 -3 6 3 13 12 15 80
149 81 160 0 4 7 15 16 23 8 9 13 20 10 25 -4 5 -2 9 3 9 6 0 42 53 82 118 39
64 95 155 125 202 29 47 51 89 48 94 -4 5 -2 6 4 3 9 -5 27 21 32 46 0 4 10
16 21 27 12 12 18 25 15 30 -4 6 -2 10 3 10 10 0 72 95 72 111 0 5 3 9 8 9 4
0 16 17 27 37 11 21 26 44 32 51 13 13 17 28 13 47 -1 5 2 7 6 2 4 -4 19 12
32 34 25 43 56 78 70 80 4 1 6 5 4 11 -1 5 1 7 6 4 5 -3 25 10 45 28 21 19 37
31 37 27 1 -3 10 5 20 18 11 13 20 20 20 16 0 -5 11 4 25 19 13 14 29 26 34
26 5 0 17 10 25 22 9 12 16 18 16 13 0 -6 3 -6 8 0 4 6 27 26 52 46 43 34 70
44 158 55 20 2 44 6 52 9 8 2 35 7 60 10 25 3 54 9 65 12 11 4 29 7 40 9 11 1
34 5 50 8 17 3 48 8 70 10 22 3 51 8 65 11 14 3 39 7 55 10 17 3 44 8 60 12
17 4 38 5 49 4 17 -2 18 3 12 76 -4 43 -9 105 -11 138 -7 103 -15 198 -20 255
-3 30 -8 80 -10 110 -4 65 -12 178 -21 275 -17 203 -24 299 -27 355 -2 44 -1
45 27 43 16 -1 32 -6 35 -10 3 -4 15 -10 26 -11 11 -2 23 -8 26 -14 3 -5 8 -9
10 -7 10 6 157 -56 152 -65 -3 -5 -1 -6 6 -2 6 4 17 4 24 -1 7 -5 31 -15 55
-23 23 -7 42 -17 42 -22 0 -5 4 -7 8 -4 4 2 21 -1 37 -9 17 -7 45 -19 63 -26
17 -8 32 -17 32 -21 0 -4 6 -5 14 -2 7 3 20 -1 27 -9 8 -7 19 -12 26 -10 6 2
14 -1 18 -6 3 -6 15 -11 26 -11 11 0 17 -4 14 -10 -3 -5 0 -7 8 -4 8 3 21 -2
30 -10 8 -8 17 -13 19 -11 3 3 30 -5 62 -18 31 -13 53 -27 49 -31 -5 -4 -3 -6
2 -5 21 6 75 -13 69 -23 -4 -6 -2 -8 3 -5 12 8 78 -17 88 -33 4 -6 11 -8 16
-5 10 7 80 -24 91 -39 5 -7 8 -7 9 -1 2 25 9 55 20 81 7 16 13 32 14 37 2 4 4
9 5 12 1 3 4 10 5 15 1 6 4 12 5 15 1 3 3 8 4 13 9 44 43 142 49 142 4 0 6 4
3 9 -3 5 2 26 11 47 9 22 17 44 18 49 3 32 18 75 26 75 6 0 8 4 5 9 -3 4 3 32
14 62 11 29 20 62 20 71 0 10 5 18 11 18 5 0 7 5 4 10 -4 6 1 24 9 42 9 17 16
38 16 45 0 18 70 102 197 236 10 11 16 24 15 30 -2 7 0 9 4 5 4 -4 13 -3 20 3
7 5 25 12 40 15 16 3 31 8 34 12 3 4 10 7 15 7 6 1 30 7 55 15 25 7 47 14 50
15 77 22 126 40 132 49 4 6 10 7 14 4 3 -4 21 -1 39 7 19 7 36 11 39 7 3 -3 6
0 6 6 0 7 5 11 12 10 7 -2 12 6 13 17 0 11 4 26 9 33 4 7 6 16 3 18 -3 3 1 17
8 31 7 14 11 32 8 39 -3 8 0 14 7 14 7 0 10 7 6 15 -3 8 -1 15 3 15 5 0 8 8 6
18 -1 9 1 22 6 27 4 6 11 24 14 40 8 40 13 60 15 60 1 0 3 7 5 15 2 8 7 26 10
40 4 14 7 31 7 38 1 6 5 12 9 12 4 0 6 9 4 20 -2 11 1 22 6 25 5 4 7 11 4 16
-4 5 -2 9 2 9 5 0 9 8 10 18 1 23 11 60 18 72 7 11 17 56 18 78 0 6 4 12 8 12
4 0 6 8 4 18 -1 9 2 23 8 30 5 7 7 15 4 19 -4 3 -3 11 2 17 6 7 13 25 16 41
10 48 10 49 19 63 4 7 6 16 3 18 -3 3 2 22 10 42 8 20 17 48 20 62 5 28 6 32
18 75 4 17 10 35 14 40 3 6 7 21 9 35 2 13 9 31 15 39 10 12 9 13 -3 6 -13 -8
-13 -7 -1 8 7 9 10 17 6 17 -4 0 -2 6 4 14 6 8 11 18 10 22 -1 5 1 16 4 24 19
49 26 94 14 102 -6 4 -8 8 -4 8 5 0 2 6 -5 14 -7 7 -20 24 -28 36 -8 12 -23
33 -32 45 -16 20 -16 24 -3 35 8 7 12 16 9 21 -3 5 -2 8 3 7 14 -5 83 54 76
65 -3 5 -2 7 3 4 6 -3 38 20 72 51 34 31 85 77 114 102 28 25 72 63 96 85 72
64 115 102 144 127 27 24 122 243 112 260 -3 4 0 8 6 8 6 0 8 5 5 10 -3 6 -1
10 5 10 6 0 9 4 5 9 -3 5 -1 12 5 16 6 4 8 10 5 15 -3 5 -1 11 4 14 8 5 40 86
47 119 1 4 3 10 4 15 1 4 2 10 1 15 0 4 3 7 8 7 9 0 25 51 21 66 -1 4 2 10 7
13 14 10 34 62 28 72 -4 5 -2 9 4 9 11 0 27 46 23 66 -1 7 59 17 170 29 95 10
174 19 176 20 1 1 -7 46 -18 99 -11 53 -19 100 -18 104 1 4 -2 14 -5 22 -3 8
-29 128 -57 265 -46 231 -57 310 -39 299 4 -2 14 3 22 11 9 8 18 15 21 15 13
0 116 73 116 82 0 5 4 7 8 4 5 -3 18 4 30 14 12 11 24 20 28 20 8 0 167 111
175 123 3 5 8 8 10 6 6 -3 212 132 226 148 6 8 14 13 17 11 3 -2 13 4 23 12
10 9 22 16 27 17 7 2 50 109 61 153 2 8 11 32 19 53 9 20 13 37 9 37 -5 0 -2
4 4 8 7 4 14 17 16 27 4 20 11 41 27 80 4 11 17 45 28 75 11 30 27 74 35 96 9
23 13 44 10 48 -4 3 -1 6 6 6 8 0 11 7 7 15 -3 8 -1 15 4 15 8 0 20 39 26 85
1 11 3 20 4 20 2 0 6 16 14 55 3 14 9 36 12 50 3 14 7 34 9 45 2 11 4 20 5 20
1 0 4 14 6 30 3 17 9 44 14 60 5 17 11 46 14 65 3 19 10 50 16 69 5 19 8 37 5
39 -2 3 0 12 4 21 5 9 12 33 15 55 4 21 8 41 10 45 3 4 7 25 10 46 5 38 23
120 47 208 6 22 8 41 5 45 -3 3 -1 11 5 19 6 7 8 13 3 13 -5 0 -2 5 6 10 8 5
15 13 15 17 1 4 11 27 23 49 11 23 18 44 15 48 -4 3 -2 6 4 6 11 0 59 98 55
113 -1 4 2 7 7 7 7 0 31 49 42 85 1 6 9 16 16 24 8 7 12 20 9 27 -3 8 -1 14 5
14 6 0 8 4 5 9 -3 5 1 12 10 15 9 4 14 13 10 22 -3 8 -2 12 4 9 6 -3 10 0 10
7 0 7 27 65 59 130 33 64 57 119 54 122 -4 3 0 6 7 6 7 0 11 3 7 6 -3 4 1 13
9 21 8 8 12 19 9 24 -4 5 -2 9 3 9 8 0 23 35 21 49 0 2 3 7 8 10 11 8 109 205
105 210 -2 2 0 7 5 10 12 9 48 83 45 93 -1 4 3 8 10 8 6 0 8 3 5 6 -4 4 2 19
11 33 15 21 81 152 87 171 1 3 5 12 9 20 5 13 -80 380 -101 430 -3 8 -7 22 -8
30 -4 22 -11 54 -39 158 l-24 94 20 34 c11 19 16 34 12 34 -4 0 1 7 12 15 10
8 15 15 9 15 -6 0 -6 3 1 8 6 4 33 50 61 102 28 52 68 124 88 160 21 36 38 71
38 78 0 6 4 12 7 12 4 0 14 15 21 32 7 18 19 39 26 46 7 7 13 20 13 28 0 8 5
14 10 14 6 0 10 9 10 20 0 11 3 20 8 20 7 0 32 50 34 67 1 4 8 13 17 20 9 7
12 13 6 13 -7 0 -7 3 0 8 6 4 23 31 39 61 24 45 29 68 32 140 13 305 15 413 9
429 -4 9 -9 40 -11 67 -3 28 -8 61 -13 75 -7 24 -6 163 3 245 5 46 16 150 21
215 2 25 7 65 10 90 2 25 8 74 11 110 3 36 8 83 10 105 2 22 6 65 9 95 4 53 9
100 20 205 3 28 8 73 10 100 2 28 7 77 10 110 4 33 8 78 10 100 1 22 4 40 5
40 1 0 6 61 13 162 1 17 4 34 7 37 3 3 5 28 4 55 -1 28 2 51 7 51 5 0 9 810 9
1988 0 1911 -1 1989 -18 2008 -10 11 -16 26 -14 33 3 8 0 11 -7 7 -7 -5 -11 1
-11 13 0 12 -5 21 -11 21 -5 0 -8 4 -4 9 3 5 -2 17 -11 25 -8 9 -12 16 -8 16
3 0 1 6 -5 13 -6 8 -8 17 -4 20 3 4 1 7 -5 7 -7 0 -12 7 -12 15 0 8 -5 15 -10
15 -6 0 -9 3 -8 8 4 13 -13 52 -23 52 -5 0 -8 3 -7 8 4 14 -13 52 -23 52 -6 0
-7 5 -4 10 3 6 1 10 -5 10 -6 0 -9 4 -6 8 3 5 -4 18 -14 30 -11 12 -20 25 -20
29 0 5 -11 20 -24 35 -14 14 -22 29 -19 32 4 3 1 6 -5 6 -6 0 -14 9 -17 20 -4
11 -11 18 -16 15 -5 -4 -9 0 -9 7 0 8 -10 28 -22 45 -13 17 -30 41 -38 54 -8
12 -22 30 -32 40 -9 9 -14 20 -11 23 3 3 -2 8 -11 12 -9 3 -14 10 -11 14 3 5
-10 23 -27 41 -18 18 -26 29 -18 24 13 -8 13 -7 0 11 -8 10 -24 28 -35 39 -12
11 -16 18 -10 15 6 -3 2 3 -8 13 -11 9 -16 17 -12 17 3 0 0 7 -7 15 -30 33
-38 45 -38 55 0 5 -4 10 -10 10 -5 0 -10 7 -10 15 0 9 -7 18 -15 21 -21 8 -19
17 15 67 17 25 30 50 30 56 0 6 5 11 11 11 5 0 7 5 4 10 -3 6 -2 10 3 10 5 0
17 12 27 26 12 18 13 24 4 19 -8 -4 -4 2 9 12 13 10 24 27 26 37 1 10 7 21 13
24 6 4 25 32 44 62 18 30 35 57 38 60 18 16 51 72 40 66 -8 -4 -5 1 6 11 12
10 27 27 35 37 13 18 13 19 0 11 -8 -5 0 7 18 25 29 31 33 38 31 56 0 3 10 14
22 25 12 10 18 19 13 19 -5 0 -1 5 9 11 9 6 15 14 13 18 -3 4 11 27 30 51 19
24 32 45 30 48 -3 2 6 16 19 30 13 14 22 29 19 34 -3 4 -1 8 4 8 10 0 48 57
49 73 1 5 14 23 30 39 15 17 21 28 13 24 -8 -4 -6 0 4 8 18 14 15 21 -6 17 -5
0 -8 4 -8 9 0 6 -7 10 -15 10 -8 0 -15 5 -15 12 0 6 -3 9 -6 5 -3 -3 -15 3
-27 13 -11 11 -23 17 -27 15 -4 -3 -15 4 -25 15 -10 11 -21 17 -25 15 -4 -3
-11 2 -14 11 -3 8 -10 12 -16 9 -5 -3 -10 -1 -10 5 0 6 -4 8 -10 5 -5 -3 -10
-1 -10 5 0 6 -4 9 -9 5 -6 -3 -13 1 -18 9 -4 8 -15 16 -23 18 -8 2 -23 12 -33
23 -10 11 -15 13 -11 5 4 -8 -5 -4 -19 9 -15 14 -27 20 -27 15 0 -5 -4 -4 -8
1 -12 17 -75 58 -89 58 -7 0 -13 4 -13 9 0 4 -7 8 -15 8 -8 0 -15 5 -15 12 0
6 -3 8 -7 5 -3 -4 -12 1 -20 11 -10 11 -12 12 -8 2 4 -10 2 -9 -8 2 -8 10 -17
15 -20 11 -4 -3 -7 -1 -7 6 0 7 -5 9 -12 5 -7 -4 -8 -3 -4 5 4 6 0 14 -8 17
-9 3 -13 10 -10 15 3 5 1 9 -4 9 -6 0 -13 11 -16 25 -4 14 -11 23 -16 20 -6
-3 -10 3 -10 13 0 11 -7 23 -16 26 -8 3 -12 10 -9 16 3 5 1 10 -4 10 -6 0 -11
7 -11 15 0 8 -3 15 -8 15 -12 0 -32 53 -38 106 -9 71 -12 89 -14 89 0 0 -3 20
-6 45 -11 92 -12 105 -14 108 -2 1 -4 16 -5 32 -1 17 -3 31 -4 33 -1 1 -4 22
-7 46 -2 25 -7 56 -10 70 -3 14 -6 41 -7 59 -1 17 -4 32 -7 32 -3 0 -5 12 -6
28 0 15 -4 52 -8 82 -8 55 -10 66 -20 150 -3 25 -8 54 -10 65 -2 12 -8 48 -12
80 -10 74 -10 79 -13 85 -2 3 -4 23 -6 44 -1 24 -9 42 -20 48 -9 6 -26 21 -37
34 -12 13 -25 21 -30 18 -5 -3 -7 0 -6 8 2 7 -3 12 -10 10 -8 -1 -11 2 -8 7 3
5 -5 16 -17 24 -39 26 -97 86 -97 101 0 8 -5 18 -10 21 -6 4 -8 11 -5 16 4 5
3 15 -1 21 -7 11 -11 27 -16 66 -1 6 -5 12 -9 12 -5 0 -6 7 -3 15 4 8 1 22 -6
30 -7 8 -10 15 -7 15 2 0 -11 57 -30 128 -19 70 -35 135 -34 145 0 9 -5 17
-10 17 -6 0 -8 4 -5 8 5 8 -8 68 -21 102 -3 8 -7 20 -8 25 -1 6 -3 15 -5 20
-1 6 -3 15 -4 20 -11 58 -31 135 -36 135 -3 0 -6 8 -6 18 -2 25 -12 70 -19 82
-4 6 -8 23 -10 38 -2 15 -12 54 -21 87 -9 33 -16 66 -17 73 0 6 -3 12 -6 12
-3 0 -7 11 -7 25 -1 14 -5 33 -9 43 -4 9 -9 26 -11 37 -1 11 -10 47 -19 80 -9
33 -17 66 -18 73 0 6 -3 12 -6 12 -3 0 -7 10 -7 23 -1 12 -7 40 -13 62 -7 22
-13 49 -15 60 -2 11 -4 20 -5 20 -2 0 -4 7 -6 15 -1 8 -13 51 -24 95 -12 44
-24 94 -27 110 -3 17 -10 38 -15 48 -5 9 -6 17 -2 17 15 1 -29 22 -53 26 -24
4 -45 8 -96 19 -15 3 -39 10 -53 15 -14 5 -29 9 -33 9 -22 -4 -30 4 -37 34 -4
17 -7 35 -6 40 0 4 -4 7 -10 7 -5 0 -7 4 -4 10 3 5 -1 24 -10 41 -10 18 -12
28 -5 24 8 -5 8 0 -1 16 -7 13 -12 27 -11 31 1 4 -3 20 -9 35 -10 26 -13 37
-23 81 -2 9 -10 37 -17 62 -7 25 -13 48 -15 53 -1 4 -2 8 -4 10 -2 2 -6 17
-14 56 -10 42 -28 96 -39 109 -5 6 -6 12 -3 12 4 0 1 10 -6 23 -7 12 -11 25
-10 30 1 4 -3 7 -8 7 -5 0 -9 4 -7 9 3 12 -36 101 -45 101 -4 0 -5 7 -2 15 4
8 1 15 -6 15 -6 0 -9 4 -5 9 3 5 -1 15 -8 23 -7 7 -14 18 -15 23 -6 29 -16 52
-31 69 -9 11 -10 16 -4 12 12 -6 -14 52 -28 64 -10 10 -10 96 0 124 11 26 8
31 -61 97 -40 39 -72 74 -70 80 1 6 -1 8 -6 5 -9 -5 -30 13 -223 194 -182 169
-209 201 -203 230 3 14 7 32 8 40 2 8 6 22 10 31 4 9 6 20 5 25 -1 5 0 12 1
17 1 4 4 12 5 17 1 6 4 11 5 13 1 1 4 11 6 22 3 18 17 77 47 195 4 14 9 39 12
55 8 39 13 60 16 60 1 0 3 9 5 20 4 26 12 60 14 60 1 0 3 7 5 15 2 8 6 26 9
40 3 14 7 34 10 45 11 44 16 69 10 58 -3 -7 -12 -9 -20 -6 -8 3 -14 0 -14 -6
0 -6 -3 -10 -7 -10 -5 1 -10 0 -13 -1 -3 -1 -14 -3 -25 -5 -11 -2 -21 -8 -23
-14 -2 -5 -10 -7 -18 -4 -8 3 -14 -1 -14 -8 0 -7 -3 -10 -6 -6 -3 3 -27 -4
-52 -15 -26 -11 -56 -22 -66 -24 -11 -2 -23 -9 -26 -15 -4 -6 -10 -10 -14 -9
-4 1 -17 -1 -29 -5 -12 -4 -26 -8 -32 -10 -5 -2 -28 -11 -50 -21 -22 -10 -43
-17 -47 -16 -5 1 -8 -2 -8 -8 0 -5 -7 -7 -15 -4 -8 4 -15 1 -15 -5 0 -6 -3
-10 -7 -9 -5 1 -24 -4 -43 -11 -19 -8 -38 -15 -42 -16 -5 -1 -11 -4 -15 -5 -5
-1 -11 -2 -15 -1 -5 0 -8 -4 -8 -10 0 -5 -3 -8 -8 -6 -4 3 -25 -4 -47 -14 -55
-27 -85 -31 -85 -13 0 8 5 12 10 9 6 -3 10 -1 10 4 0 6 7 11 16 11 9 0 12 5 8
12 -4 6 -3 8 3 5 5 -4 19 2 30 13 12 10 24 16 27 13 3 -4 6 -1 6 5 0 7 6 12
14 12 8 0 21 8 28 18 7 9 20 18 28 20 8 2 23 12 32 24 10 11 18 17 18 13 0 -4
23 9 50 29 28 20 52 36 55 36 5 0 119 80 141 99 7 5 15 7 18 4 3 -4 6 -1 6 5
0 7 5 12 11 12 6 0 20 10 31 23 11 12 16 15 12 8 -4 -8 7 -4 25 10 18 13 44
32 59 41 22 14 23 17 6 17 -10 -1 -30 2 -44 5 -14 3 -47 7 -73 10 -27 3 -52 8
-55 10 -4 2 -29 7 -57 10 -27 3 -61 8 -75 11 -34 7 -99 17 -135 20 -16 2 -30
4 -30 5 0 2 -13 4 -30 5 -16 2 -30 4 -30 5 0 2 -13 4 -30 5 -16 2 -30 4 -30 5
0 3 -14 5 -85 14 -25 3 -56 8 -70 11 -13 2 -42 8 -65 11 -22 4 -51 8 -65 11
-56 9 -97 15 -125 18 -16 2 -32 4 -35 6 -8 4 -24 7 -42 8 -17 1 -17 42 -3 176
3 28 8 70 10 95 2 25 7 70 9 100 3 30 8 78 11 105 2 28 7 77 10 110 6 56 9 90
20 205 2 25 7 70 10 100 11 99 13 170 5 170 -4 0 -51 43 -103 95 -52 52 -100
95 -106 95 -7 0 -9 5 -6 10 3 6 3 10 -2 10 -4 0 -34 25 -65 55 -31 30 -61 55
-67 55 -5 0 -13 5 -17 12 -5 7 -2 8 7 3 8 -4 1 6 -15 23 -16 18 -31 30 -33 28
-3 -2 -27 20 -55 50 -28 29 -55 51 -59 48 -4 -2 -11 1 -15 7 -5 8 -3 9 7 4 8
-4 3 3 -11 16 -13 13 -28 23 -33 21 -5 -1 -6 2 -3 7 3 5 -2 15 -11 22 -10 9
-14 9 -10 2 4 -7 -36 32 -90 85 -93 92 -98 99 -96 137 1 22 2 40 3 40 1 0 4 9
6 20 6 27 -16 135 -28 135 -5 0 -7 4 -3 9 3 5 1 12 -4 16 -6 3 -8 12 -4 20 3
8 1 15 -4 15 -5 0 -10 6 -10 14 0 20 -34 129 -44 142 -5 6 -6 14 -2 17 3 4 1
12 -4 19 -10 12 -22 50 -30 92 -2 11 -8 25 -13 31 -5 7 -7 15 -3 18 3 4 2 7
-3 7 -5 0 -10 12 -11 27 0 15 -6 29 -12 31 -5 2 -7 10 -4 18 3 8 0 14 -7 14
-6 0 -9 4 -6 8 2 4 2 13 -2 19 -5 8 -43 2 -132 -23 -69 -20 -132 -38 -140 -41
-15 -6 -42 -12 -67 -15 -7 -1 -13 -5 -13 -10 0 -5 -4 -7 -10 -3 -5 3 -25 -1
-44 -9 -19 -8 -37 -12 -39 -9 -3 2 -16 -1 -29 -8 -12 -7 -32 -14 -43 -15 -36
-6 -108 -25 -119 -32 -6 -3 -15 -7 -21 -7 -30 -3 -86 -19 -91 -26 -3 -5 -9 -7
-14 -4 -7 4 -47 -6 -90 -23 -8 -3 -22 -6 -30 -7 -8 -1 -25 -5 -36 -9 -24 -7
-24 1 -5 84 12 53 23 109 25 130 1 9 4 20 8 25 3 6 4 20 3 33 -1 12 1 22 5 22
4 0 7 6 8 13 1 17 10 67 17 97 5 22 9 40 19 100 3 14 18 88 21 100 6 24 18 88
20 104 1 12 3 21 4 21 3 0 6 16 14 60 3 17 8 41 11 55 3 14 8 36 11 50 2 14 9
47 15 74 5 27 8 51 6 54 -5 4 -21 -69 -18 -80 1 -5 -2 -8 -6 -8 -8 0 -10 -7
-14 -50 -1 -11 -6 -20 -11 -20 -5 0 -7 -7 -3 -15 3 -8 2 -15 -3 -15 -4 0 -8
-6 -9 -12 -1 -19 -9 -50 -21 -80 -6 -16 -8 -28 -5 -28 4 0 2 -6 -4 -12 -5 -7
-12 -26 -15 -43 -3 -16 -12 -50 -21 -74 -9 -24 -13 -47 -10 -52 3 -5 0 -9 -5
-9 -6 0 -10 -3 -9 -7 1 -5 -2 -20 -6 -34 -4 -14 -9 -32 -10 -40 -2 -8 -6 -21
-9 -29 -7 -17 -26 -89 -28 -105 0 -5 -5 -15 -11 -22 -5 -7 -7 -17 -3 -23 3 -5
1 -10 -6 -10 -6 0 -9 -8 -6 -20 3 -11 0 -20 -6 -20 -6 0 -8 -3 -5 -6 4 -3 0
-21 -8 -40 -8 -19 -12 -39 -9 -44 4 -6 2 -10 -3 -10 -8 0 -10 -6 -14 -48 -2
-19 -27 -49 -29 -35 -1 4 -3 24 -4 43 -4 46 -13 132 -20 200 -4 30 -8 78 -11
105 -2 28 -7 75 -10 105 -5 53 -7 72 -19 190 -3 30 -8 75 -10 100 -2 25 -6 68
-9 95 -3 28 -8 79 -11 115 -3 36 -8 85 -10 110 -3 25 -7 65 -9 89 -3 32 -11
50 -27 62 -13 10 -25 16 -27 14 -2 -2 -12 5 -23 16 -11 11 -24 17 -29 14 -5
-3 -14 4 -20 15 -6 11 -17 20 -25 20 -7 0 -20 6 -27 13 -18 18 -61 42 -71 39
-4 -1 -10 5 -13 13 -4 8 -12 15 -19 15 -7 0 -18 7 -25 15 -7 8 -16 13 -20 10
-4 -3 -11 2 -14 11 -3 8 -10 13 -15 10 -5 -3 -12 1 -15 10 -3 8 -10 12 -16 9
-5 -3 -10 -1 -10 4 0 6 -6 11 -13 11 -7 0 -18 9 -25 20 -7 11 -19 20 -28 20
-8 0 -13 4 -10 9 6 10 -23 26 -39 22 -5 -2 -7 0 -3 4 7 7 -21 45 -34 45 -4 0
-21 14 -36 30 -16 17 -35 30 -41 30 -7 0 -10 3 -8 8 3 4 -1 13 -9 20 -8 7 -14
10 -14 7 0 -4 -15 10 -34 29 -18 20 -37 36 -42 36 -5 0 -15 9 -22 20 -7 12
-18 18 -24 14 -7 -4 -8 -3 -4 5 4 6 0 14 -11 18 -10 4 -24 14 -31 22 -11 13
-12 13 -7 1 4 -8 -2 -6 -12 5 -10 12 -27 27 -37 35 -18 13 -19 13 -12 0 4 -9
1 -8 -7 2 -19 24 -90 72 -82 56 4 -7 -3 -2 -15 12 -12 14 -19 18 -15 10 6 -13
5 -13 -7 0 -25 28 -62 56 -53 40 4 -8 -2 -5 -13 7 -12 12 -30 24 -42 28 -11 3
-20 11 -20 16 0 5 -7 9 -15 9 -8 0 -15 5 -15 11 0 6 -5 9 -12 7 -6 -2 -19 2
-27 10 -29 26 -122 82 -116 69 4 -7 0 -4 -8 6 -8 9 -19 17 -26 17 -6 0 -11 5
-11 11 0 5 -4 7 -10 4 -5 -3 -10 -1 -10 4 0 6 -7 11 -15 11 -8 0 -15 5 -15 12
0 6 -3 9 -6 5 -3 -3 -14 2 -25 11 -11 9 -23 17 -28 17 -4 0 -15 8 -25 18 -10
9 -22 15 -27 12 -5 -4 -9 -1 -9 4 0 6 -7 11 -16 11 -8 0 -12 5 -9 10 3 6 1 10
-4 10 -6 0 -11 6 -11 14 0 8 -4 16 -8 18 -4 2 -23 24 -42 51 -18 26 -37 47
-42 47 -4 0 -8 6 -8 14 0 8 -12 24 -27 36 -16 12 -21 18 -14 14 17 -9 -13 36
-53 79 -14 15 -26 30 -26 33 0 7 -112 150 -147 189 -7 7 -13 17 -13 21 0 3
-10 15 -22 25 -11 11 -18 19 -13 19 4 0 -35 31 -86 70 -52 38 -98 73 -104 77
-60 49 -136 103 -144 103 -6 0 -11 4 -11 9 0 15 -69 53 -85 48 -7 -3 -15 -2
-17 3 -2 5 -21 11 -44 13 -23 2 -45 6 -50 10 -5 3 -27 8 -49 12 -22 4 -78 16
-125 28 -47 11 -96 20 -109 21 -23 2 -64 51 -55 67 2 3 -6 34 -17 70 -12 35
-22 69 -23 74 -15 58 -21 79 -38 140 -45 158 -60 211 -65 225 -4 8 -5 18 -5
23 1 4 -4 23 -12 42 -8 19 -13 35 -11 35 1 0 -4 21 -12 48 -8 26 -16 56 -19
67 -10 47 -43 139 -45 125 -4 -26 -6 -35 -13 -52 -4 -9 -9 -22 -10 -30 -2 -7
-6 -20 -9 -28 -8 -19 -48 -146 -51 -163 -2 -6 -8 -25 -15 -40 -6 -16 -9 -33
-5 -38 3 -5 1 -9 -4 -9 -6 0 -13 -17 -17 -37 -4 -21 -11 -44 -17 -50 -6 -7 -8
-13 -4 -13 3 0 0 -17 -8 -37 -8 -21 -33 -99 -56 -173 -23 -74 -58 -184 -77
-244 -19 -59 -36 -113 -38 -120 -1 -6 -5 -18 -8 -26 -3 -8 -13 -40 -22 -70 -9
-30 -19 -62 -22 -70 -8 -19 -7 -17 -22 -70 -6 -25 -18 -61 -26 -80 -7 -19 -16
-48 -20 -64 -3 -15 -8 -26 -10 -24 -4 4 -49 217 -60 283 -5 32 -12 65 -20 105
-13 62 -16 76 -20 95 -7 32 -12 54 -34 165 -11 58 -32 159 -45 226 -14 67 -28
134 -31 150 -3 16 -23 117 -45 224 -22 107 -43 209 -45 225 -3 17 -18 93 -34
170 -16 77 -32 156 -35 175 -3 19 -8 46 -12 60 -6 25 -30 145 -39 190 -3 14
-7 36 -10 50 -4 14 -8 39 -11 55 -3 17 -10 47 -15 67 l-10 37 -107 -53 c-234
-117 -420 -206 -429 -206 -5 0 -19 -9 -31 -20 -12 -12 -22 -18 -22 -15 0 3
-28 -9 -62 -27 -35 -18 -65 -32 -68 -33 -20 -3 -90 -41 -90 -49 0 -5 -3 -7 -6
-3 -8 7 -106 -41 -116 -57 -4 -6 -8 -8 -8 -3 0 4 -15 0 -32 -10 -18 -9 -40
-18 -48 -19 -8 -2 -16 -8 -18 -14 -2 -5 -7 -8 -12 -5 -5 3 -14 -1 -22 -8 -14
-14 -17 -16 -48 -24 -11 -3 -20 -10 -20 -16 0 -6 -3 -8 -6 -5 -6 7 -126 -50
-135 -64 -3 -5 -10 -10 -15 -9 -19 1 -54 -12 -54 -19 0 -5 -14 -11 -30 -15
-18 -4 -27 -11 -24 -17 4 -6 2 -8 -4 -5 -5 4 -24 -1 -40 -10 -39 -22 -50 -12
-24 21 10 14 22 22 26 19 3 -3 6 -2 6 4 0 5 15 26 34 45 19 20 32 39 28 44 -4
4 -2 5 3 1 6 -3 35 22 65 54 30 33 87 93 127 133 39 41 69 77 66 80 -4 3 2 6
12 6 10 0 16 3 12 6 -3 3 10 19 29 36 19 16 31 34 28 39 -3 5 1 9 9 9 8 0 36
24 62 53 26 28 73 79 104 111 51 54 52 57 16 30 -22 -16 -46 -36 -53 -44 -12
-13 -13 -13 -6 0 4 9 -2 7 -17 -6 -27 -24 -158 -114 -164 -114 -6 0 -41 -29
-68 -55 -11 -11 -16 -13 -11 -5 8 15 -95 -56 -108 -75 -5 -6 -8 -6 -8 0 0 6
-10 -1 -21 -15 -11 -14 -18 -18 -14 -10 4 10 1 9 -8 -2 -8 -10 -17 -18 -21
-18 -4 0 -14 -6 -21 -12 -35 -31 -45 -38 -45 -31 0 4 -5 1 -10 -7 -5 -8 -13
-15 -17 -16 -22 -2 -42 -17 -36 -27 3 -5 2 -7 -4 -4 -5 4 -19 -3 -31 -13 -12
-11 -26 -20 -32 -20 -6 0 -8 -6 -4 -12 4 -7 -2 -5 -13 5 -11 9 -23 14 -27 10
-4 -5 -6 -3 -4 3 1 7 -35 53 -82 104 -47 51 -89 99 -93 106 -5 8 -13 12 -18 8
-5 -3 -8 0 -7 8 2 7 -3 12 -10 10 -6 -1 -11 2 -10 6 3 9 -13 28 -98 118 -29
30 -65 70 -81 89 -17 19 -33 31 -37 27 -4 -4 -6 -2 -4 4 2 6 -46 64 -106 128
-61 65 -115 125 -122 134 -6 9 -22 17 -35 18 -20 1 -226 30 -263 37 -6 1 -26
19 -45 39 -18 21 -38 35 -42 32 -5 -3 -9 2 -9 10 0 9 -7 16 -16 16 -8 0 -12 5
-9 10 3 6 1 10 -5 10 -6 0 -25 16 -43 35 -17 19 -38 35 -45 35 -7 0 -10 5 -7
10 3 6 -1 10 -9 10 -9 0 -16 7 -16 15 0 8 -5 15 -11 15 -7 0 -27 16 -45 35
-19 18 -34 32 -34 30 0 -2 -18 14 -40 36 -22 22 -40 37 -41 32 0 -4 -5 3 -10
17 l-10 24 -22 -25 c-12 -14 -18 -18 -13 -9 5 8 -2 4 -16 -10 -58 -56 -92 -84
-84 -70 4 8 -5 0 -22 -17 -16 -18 -32 -30 -35 -26 -4 3 -9 -2 -13 -11 -3 -9
-13 -16 -21 -16 -8 0 -12 -4 -8 -9 3 -5 -4 -12 -15 -16 -11 -3 -20 -11 -20
-16 0 -5 -6 -9 -13 -9 -7 0 -24 -13 -39 -30 -14 -16 -28 -26 -32 -23 -3 4 -6
2 -6 -4 0 -5 -11 -15 -25 -21 -20 -9 -27 -9 -29 1 -2 6 -7 21 -11 32 -7 19
-13 45 -17 73 -1 6 -6 12 -11 12 -6 0 -8 3 -4 6 3 3 -1 23 -8 45 -8 21 -12 39
-9 39 2 0 -2 14 -11 30 -9 17 -13 30 -11 30 3 0 -2 16 -10 35 -8 19 -11 35 -8
35 4 0 0 7 -7 17 -8 9 -13 18 -11 20 1 1 2 4 1 6 0 1 -2 10 -4 19 -2 10 -13
50 -26 90 -25 80 -30 97 -31 116 -1 6 -5 12 -10 12 -5 0 -7 4 -3 9 3 5 1 12
-5 16 -6 4 -8 11 -4 16 3 5 0 16 -6 24 -7 8 -10 15 -6 15 3 0 0 15 -8 34 -8
19 -12 37 -8 40 6 6 -15 10 -33 6 -62 -13 -110 -22 -130 -25 -11 -2 -20 -4
-20 -5 0 -2 -28 -8 -65 -14 -14 -3 -35 -7 -47 -10 -55 -14 -75 -18 -148 -31
-11 -2 -20 -4 -20 -5 0 -3 -51 -12 -72 -13 -13 -1 -23 -4 -23 -8 0 -4 -8 -8
-17 -7 -10 0 -29 -3 -43 -7 -14 -3 -38 -8 -55 -11 -16 -3 -41 -8 -55 -11 -14
-2 -33 -5 -42 -6 -10 -1 -18 -5 -18 -10 0 -5 -7 -6 -16 -3 -9 3 -21 3 -27 -1
-12 -7 -36 -12 -74 -15 -13 -1 -23 -5 -23 -8 0 -4 -6 -7 -12 -7 -13 -1 -48 -7
-108 -19 -19 -3 -39 -7 -45 -8 -5 -1 -16 -5 -22 -9 -7 -5 -13 -6 -13 -3 0 2
-15 0 -32 -5 -18 -5 -49 -12 -68 -15 -68 -11 -75 -12 -75 -14 0 -2 -23 -7 -67
-15 -32 -5 -38 -3 -39 12 -1 10 -3 63 -4 118 -2 55 -6 177 -10 270 -3 94 -8
229 -11 300 -4 128 -11 328 -13 373 l-1 22 -2996 0 c-1647 0 -2993 -3 -2991
-7z"/>
</g>
</svg>
